<svg version="1.1" id="Layer_1" xmlns="http://www.w3.org/2000/svg" xmlns:xlink="http://www.w3.org/1999/xlink" x="0px" y="0px"
	 width="100%" viewBox="0 0 256 256" enable-background="new 0 0 256 256" xml:space="preserve">
<path fill="#000000" opacity="1.000000" stroke="none" 
	d="
M1.323831,123.243599 
	C1.000000,83.570938 1.046090,44.141724 0.913539,4.713110 
	C0.902798,1.517901 1.729015,0.916390 4.773927,0.925208 
	C43.869923,1.038429 82.966362,1.000000 122.531342,1.000000 
	C123.689629,1.793838 124.261787,2.835166 123.777794,3.731581 
	C119.640396,11.394428 121.785095,19.679010 121.349442,27.692465 
	C121.124588,31.828485 121.146568,35.996330 121.417572,40.137909 
	C121.720772,44.771385 124.743790,47.891441 128.802063,48.002251 
	C132.829666,48.112228 136.278229,45.077892 136.478088,40.446777 
	C136.914581,30.332153 136.782074,20.203413 136.536667,10.078148 
	C136.464035,7.081907 133.128723,4.941372 134.756409,1.323830 
	C174.429062,1.000000 213.858276,1.046090 253.286896,0.913540 
	C256.482117,0.902798 257.083588,1.729019 257.074768,4.773927 
	C256.961548,43.869923 257.000000,82.966362 257.000000,122.531342 
	C256.206177,123.689629 255.164825,124.261818 254.268402,123.777817 
	C246.605560,119.640396 238.320984,121.785095 230.307541,121.349434 
	C226.171524,121.124580 222.003677,121.146561 217.862091,121.417572 
	C213.228607,121.720772 210.108582,124.743782 209.997772,128.802048 
	C209.887802,132.829681 212.922104,136.278214 217.553207,136.478088 
	C227.667816,136.914581 237.796555,136.782074 247.921829,136.536667 
	C250.918076,136.464035 253.058609,133.128738 256.676147,134.756409 
	C257.000000,174.429062 256.953888,213.858276 257.086456,253.286896 
	C257.097198,256.482117 256.270996,257.083588 253.226074,257.074799 
	C214.130066,256.961578 175.033646,257.000000 135.468658,257.000000 
	C134.310379,256.206177 133.738190,255.164871 134.222214,254.268433 
	C138.359619,246.605591 136.214920,238.320999 136.650558,230.307541 
	C136.875412,226.171524 136.853394,222.003677 136.582413,217.862091 
	C136.279221,213.228622 133.256195,210.108582 129.197937,209.997772 
	C125.170303,209.887817 121.721786,212.922119 121.521927,217.553223 
	C121.085419,227.667847 121.217926,237.796585 121.463348,247.921860 
	C121.535973,250.918106 124.871269,253.058640 123.243599,256.676178 
	C83.570938,257.000000 44.141720,256.953888 4.713104,257.086456 
	C1.517881,257.097198 0.916392,256.270966 0.925210,253.226074 
	C1.038428,214.130066 1.000000,175.033646 1.000000,135.468658 
	C1.793838,134.310379 2.835156,133.738205 3.731574,134.222214 
	C11.394424,138.359604 19.679007,136.214935 27.692461,136.650574 
	C31.828482,136.875427 35.996326,136.853439 40.137909,136.582428 
	C44.771381,136.279221 47.891430,133.256210 48.002254,129.197922 
	C48.112240,125.170334 45.077892,121.721779 40.446766,121.521919 
	C30.332146,121.085411 20.203405,121.217941 10.078140,121.463348 
	C7.081899,121.535965 4.941374,124.871300 1.323831,123.243599 
z"/>
<path fill="#FFA500" opacity="1.000000" stroke="none" 
	d="
M134.539368,1.000001 
	C134.865875,1.098617 134.731766,1.197232 134.597641,1.295847 
	C140.369324,6.508901 138.929977,13.432119 138.986786,19.977966 
	C139.046005,26.802776 138.958069,33.628830 139.011337,40.453735 
	C139.066620,47.533768 133.811752,50.484287 129.096100,50.901688 
	C123.655106,51.383289 119.007538,46.203842 119.002068,40.294712 
	C118.994057,31.638206 119.271706,22.969931 118.897728,14.329607 
	C118.674683,9.176571 119.686539,4.887060 123.338257,1.248724 
	C126.692909,1.000000 130.385818,1.000000 134.539368,1.000001 
z"/>
<path fill="#FFA500" opacity="1.000000" stroke="none" 
	d="
M1.000000,123.460632 
	C1.098618,123.134117 1.197236,123.268234 1.295854,123.402351 
	C6.508920,117.630676 13.432140,119.070030 19.977991,119.013237 
	C26.802799,118.954010 33.628845,119.041908 40.453754,118.988655 
	C47.533840,118.933418 50.484291,124.188278 50.901684,128.903915 
	C51.383274,134.344940 46.203827,138.992477 40.294685,138.997940 
	C31.638186,139.005936 22.969912,138.728287 14.329594,139.102280 
	C9.176538,139.325333 4.887066,138.313400 1.248722,134.661743 
	C1.000000,131.307098 1.000000,127.614182 1.000000,123.460632 
z"/>
<path fill="#FFA500" opacity="1.000000" stroke="none" 
	d="
M257.000000,134.539368 
	C256.901367,134.865891 256.802734,134.731781 256.704132,134.597656 
	C251.491074,140.369324 244.567856,138.929977 238.022003,138.986786 
	C231.197205,139.046021 224.371155,138.958099 217.546249,139.011353 
	C210.466324,139.066605 207.515747,133.811920 207.098328,129.096085 
	C206.616714,123.655121 211.796158,119.007530 217.705276,119.002060 
	C226.361786,118.994049 235.030045,119.271706 243.670364,118.897728 
	C248.823395,118.674683 253.112915,119.686523 256.751282,123.338257 
	C257.000000,126.692909 257.000000,130.385818 257.000000,134.539368 
z"/>
<path fill="#FFA500" opacity="1.000000" stroke="none" 
	d="
M123.460632,257.000000 
	C123.134102,256.901367 123.268219,256.802734 123.402344,256.704132 
	C117.630676,251.491074 119.070030,244.567856 119.013222,238.022003 
	C118.953995,231.197205 119.041908,224.371155 118.988655,217.546249 
	C118.933411,210.466064 124.188385,207.515732 128.903900,207.098328 
	C134.344879,206.616745 138.992477,211.796173 138.997925,217.705276 
	C139.005936,226.361786 138.728271,235.030045 139.102264,243.670364 
	C139.325302,248.823395 138.313431,253.112900 134.661743,256.751282 
	C131.307098,257.000000 127.614182,257.000000 123.460632,257.000000 
z"/>
<path fill="#FFA500" opacity="1.000000" stroke="none" 
	d="
M105.731766,194.319595 
	C93.653526,189.887573 83.772591,183.270126 75.676689,173.512787 
	C67.291641,163.406967 62.051632,151.943314 60.390400,139.288269 
	C58.766605,126.918396 59.687752,114.456764 64.776855,102.584015 
	C74.024803,81.008820 89.800934,67.095261 112.648994,61.812862 
	C134.569885,56.744827 154.724380,60.787460 172.565170,75.026512 
	C192.992157,91.329651 200.767731,113.238190 197.695694,138.202881 
	C193.993378,168.289490 172.695541,191.595367 141.461807,197.023819 
	C129.447968,199.111816 117.645767,198.448151 105.731766,194.319595 
z"/>
<path fill="#FFA500" opacity="1.000000" stroke="none" 
	d="
M16.999207,67.044136 
	C19.538454,60.357006 25.475983,57.755970 31.587088,60.971695 
	C40.767803,65.802681 49.763454,71.007263 58.653252,76.359512 
	C62.768974,78.837456 63.549164,85.662331 60.951092,90.279572 
	C58.697975,94.283775 51.914745,96.271667 48.056782,94.052429 
	C39.336273,89.036102 30.451555,84.302200 21.784185,79.197777 
	C17.244467,76.524231 15.673215,72.028282 16.999207,67.044136 
z"/>
<path fill="#FFA500" opacity="1.000000" stroke="none" 
	d="
M241.256592,186.609863 
	C241.958496,198.346024 231.898941,200.189972 225.289124,196.624649 
	C216.729996,192.007889 208.372025,187.005249 200.051956,181.963272 
	C195.281509,179.072388 194.163116,173.219238 196.995468,168.021637 
	C199.492783,163.438858 205.294968,161.491531 210.095810,164.065475 
	C218.819763,168.742783 227.454895,173.595627 235.994370,178.601593 
	C238.763779,180.225082 241.302017,182.436447 241.256592,186.609863 
z"/>
<path fill="#FFA500" opacity="1.000000" stroke="none" 
	d="
M69.996399,210.038315 
	C71.868347,206.774628 73.995956,204.028503 75.424995,200.957321 
	C78.079323,195.252884 85.068146,194.124802 90.338799,197.135986 
	C95.109619,199.861603 96.321945,205.498947 93.218628,211.282715 
	C88.769798,219.574158 84.236778,227.827789 79.466988,235.937149 
	C76.150108,241.576340 69.591583,243.125946 64.109291,240.015198 
	C60.003178,237.685287 58.453465,230.801346 61.194210,225.615646 
	C63.924545,220.449646 67.008156,215.470367 69.996399,210.038315 
z"/>
<path fill="#FFA500" opacity="1.000000" stroke="none" 
	d="
M191.008331,241.039078 
	C186.095139,242.390808 181.210632,240.536331 178.367386,235.689362 
	C173.371872,227.173294 168.613678,218.510880 163.999908,209.780914 
	C161.548950,205.143280 163.426086,199.582672 167.815109,197.037628 
	C172.403229,194.377167 179.199463,195.265289 181.677353,199.390747 
	C187.009171,208.267731 192.204895,217.242874 197.026855,226.403885 
	C200.235336,232.499512 197.678680,238.389938 191.008331,241.039078 
z"/>
<path fill="#FFA500" opacity="1.000000" stroke="none" 
	d="
M80.509750,61.803177 
	C74.906845,59.228001 73.726425,53.714237 71.014778,49.418781 
	C67.473717,43.809452 64.128380,38.050415 61.101757,32.149139 
	C57.394108,24.920002 60.650784,18.608133 68.484222,16.773308 
	C73.917809,15.500596 77.272041,18.730932 79.653618,22.474615 
	C84.338593,29.839125 88.302376,37.658939 92.686440,45.219696 
	C95.240700,49.624802 96.228477,54.081730 92.976639,58.396511 
	C89.940109,62.425613 85.623123,63.198841 80.509750,61.803177 
z"/>
<path fill="#FFA500" opacity="1.000000" stroke="none" 
	d="
M179.537872,60.790489 
	C169.477982,65.162880 162.593811,59.025291 162.998199,51.306976 
	C163.159653,48.225155 165.042328,45.823719 166.393158,43.297157 
	C170.215408,36.148167 174.384796,29.184990 178.406876,22.142582 
	C182.896576,14.281369 194.054810,15.167468 197.008408,21.404978 
	C198.552429,24.665697 198.838928,28.169237 197.399384,30.874611 
	C191.996078,41.029171 186.730118,51.302082 179.537872,60.790489 
z"/>
<path fill="#FFA500" opacity="1.000000" stroke="none" 
	d="
M195.084473,84.932808 
	C195.947586,77.580452 201.272049,74.865128 206.664978,71.999474 
	C213.235641,68.508011 219.518188,64.470459 226.116180,61.035679 
	C230.501556,58.752743 235.253891,59.194420 238.841751,62.575211 
	C241.945221,65.499535 242.339844,69.813377 240.890656,73.744942 
	C239.187439,78.365662 234.574051,80.217461 230.750885,82.569008 
	C225.105728,86.041222 219.237854,89.174522 213.336182,92.201324 
	C203.259384,97.369438 199.275528,95.797981 195.084473,84.932808 
z"/>
<path fill="#FFA500" opacity="1.000000" stroke="none" 
	d="
M16.997810,185.120407 
	C18.625902,179.677032 23.341417,177.860352 27.249401,175.455582 
	C33.860790,171.387268 40.843063,167.925964 47.615181,164.113129 
	C52.393326,161.422958 58.844372,164.037659 60.951653,167.703781 
	C63.846588,172.740234 62.668934,179.041016 57.810608,181.989395 
	C49.511082,187.026108 41.180733,192.034454 32.649155,196.659668 
	C25.065765,200.770844 17.790192,196.975586 16.207329,188.696945 
	C15.940296,187.300293 17.295563,186.688217 16.997810,185.120407 
z"/>
<path fill="#000000" opacity="1.000000" stroke="none" 
	d="
M103.747002,170.306122 
	C90.485306,161.779449 83.138489,150.092148 80.910896,134.753937 
	C77.004829,107.858604 98.703972,83.867706 122.921700,80.811653 
	C150.614349,77.317108 174.301575,99.145462 177.203461,123.107460 
	C180.554092,150.774887 158.905640,174.371689 135.203018,177.183319 
	C123.755402,178.541229 113.769531,175.832169 103.747002,170.306122 
z"/>
</svg>