<?xml version="1.0" encoding="UTF-8"?>
<!DOCTYPE svg PUBLIC "-//W3C//DTD SVG 1.1//EN" "http://www.w3.org/Graphics/SVG/1.1/DTD/svg11.dtd">
<svg xmlns="http://www.w3.org/2000/svg" version="1.1" width="256px" height="256px" style="shape-rendering:geometricPrecision; text-rendering:geometricPrecision; image-rendering:optimizeQuality; fill-rule:evenodd; clip-rule:evenodd" xmlns:xlink="http://www.w3.org/1999/xlink">
<g><path style="opacity:0.955" fill="#fea500" d="M 123.5,-0.5 C 126.167,-0.5 128.833,-0.5 131.5,-0.5C 133.807,0.977392 135.64,2.97739 137,5.5C 137.667,17.8333 137.667,30.1667 137,42.5C 131.17,51.3686 124.837,51.702 118,43.5C 117.333,30.8333 117.333,18.1667 118,5.5C 119.36,2.97739 121.193,0.977392 123.5,-0.5 Z"/></g>
<g><path style="opacity:0.924" fill="#fea500" d="M 67.5,14.5 C 72.0761,14.5683 75.5761,16.5683 78,20.5C 83.2536,29.3389 88.2536,38.3389 93,47.5C 94.4366,55.2379 91.2699,59.9046 83.5,61.5C 80.2573,60.9852 77.4239,59.6519 75,57.5C 69.6667,48.1667 64.3333,38.8333 59,29.5C 57.0787,21.6272 59.9121,16.6272 67.5,14.5 Z"/></g>
<g><path style="opacity:0.925" fill="#fea500" d="M 185.5,14.5 C 194.381,15.5672 197.881,20.5672 196,29.5C 190.667,38.8333 185.333,48.1667 180,57.5C 174.205,62.4931 168.539,62.1598 163,56.5C 161.682,53.594 161.348,50.594 162,47.5C 167.623,36.4133 174.123,25.9133 181.5,16C 183.058,15.79 184.391,15.29 185.5,14.5 Z"/></g>
<g><path style="opacity:0.926" fill="#fea500" d="M 21.5,58.5 C 24.1873,58.3359 26.854,58.5026 29.5,59C 38.8333,64.3333 48.1667,69.6667 57.5,75C 61.5418,79.603 62.0418,84.4363 59,89.5C 55.8672,92.877 52.0339,94.0437 47.5,93C 36.4133,87.3771 25.9133,80.8771 16,73.5C 13.7271,66.8932 15.5604,61.8932 21.5,58.5 Z"/></g>
<g><path style="opacity:0.948" fill="#fea500" d="M 116.5,58.5 C 151.685,55.6655 176.852,69.9988 192,101.5C 203.032,136.063 194.199,164.23 165.5,186C 140.167,200 114.833,200 89.5,186C 60.8011,164.23 51.9678,136.063 63,101.5C 73.5881,78.0717 91.4214,63.7384 116.5,58.5 Z M 123.5,78.5 C 154.943,79.9437 172.61,96.2771 176.5,127.5C 173.167,156.833 156.833,173.167 127.5,176.5C 98.1667,173.167 81.8333,156.833 78.5,127.5C 81.4327,99.9067 96.4327,83.5734 123.5,78.5 Z"/></g>
<g><path style="opacity:0.924" fill="#fea500" d="M 225.5,58.5 C 236.956,57.4608 241.456,62.4608 239,73.5C 229.087,80.8771 218.587,87.3771 207.5,93C 199.762,94.4366 195.095,91.2699 193.5,83.5C 194.18,81.1111 195.014,78.7778 196,76.5C 205.814,70.349 215.647,64.349 225.5,58.5 Z"/></g>
<g><path style="opacity:0.955" fill="#fea500" d="M -0.5,131.5 C -0.5,128.833 -0.5,126.167 -0.5,123.5C 0.977392,121.193 2.97739,119.36 5.5,118C 17.8333,117.333 30.1667,117.333 42.5,118C 51.3686,123.83 51.702,130.163 43.5,137C 30.8333,137.667 18.1667,137.667 5.5,137C 2.97739,135.64 0.977392,133.807 -0.5,131.5 Z"/></g>
<g><path style="opacity:0.955" fill="#fea500" d="M 255.5,123.5 C 255.5,126.167 255.5,128.833 255.5,131.5C 254.023,133.807 252.023,135.64 249.5,137C 237.167,137.667 224.833,137.667 212.5,137C 203.631,131.17 203.298,124.837 211.5,118C 224.167,117.333 236.833,117.333 249.5,118C 252.023,119.36 254.023,121.193 255.5,123.5 Z"/></g>
<g><path style="opacity:0.924" fill="#fea500" d="M 47.5,161.5 C 59.345,161.872 63.1783,167.538 59,178.5C 49.4142,184.711 39.5809,190.544 29.5,196C 18.0283,197.527 13.5283,192.694 16,181.5C 17.5,180 19,178.5 20.5,177C 29.5627,171.806 38.5627,166.64 47.5,161.5 Z"/></g>
<g><path style="opacity:0.925" fill="#fea500" d="M 201.5,161.5 C 203.527,161.338 205.527,161.505 207.5,162C 218.587,167.623 229.087,174.123 239,181.5C 241.868,192.97 237.368,197.803 225.5,196C 216.167,190.667 206.833,185.333 197.5,180C 193.458,175.397 192.958,170.564 196,165.5C 197.5,163.531 199.333,162.198 201.5,161.5 Z"/></g>
<g><path style="opacity:0.925" fill="#fea500" d="M 82.5,193.5 C 90.7816,194.612 94.2816,199.278 93,207.5C 87.3771,218.587 80.8771,229.087 73.5,239C 62.0302,241.868 57.1969,237.368 59,225.5C 64.3333,216.167 69.6667,206.833 75,197.5C 77.2552,195.501 79.7552,194.168 82.5,193.5 Z"/></g>
<g><path style="opacity:0.924" fill="#fea500" d="M 170.5,193.5 C 174.099,193.855 177.265,195.189 180,197.5C 185.333,206.833 190.667,216.167 196,225.5C 197.527,236.972 192.694,241.472 181.5,239C 174.123,229.087 167.623,218.587 162,207.5C 160.556,200.131 163.39,195.465 170.5,193.5 Z"/></g>
<g><path style="opacity:0.955" fill="#fea500" d="M 131.5,255.5 C 128.833,255.5 126.167,255.5 123.5,255.5C 121.193,254.023 119.36,252.023 118,249.5C 117.333,237.167 117.333,224.833 118,212.5C 123.83,203.631 130.163,203.298 137,211.5C 137.667,224.167 137.667,236.833 137,249.5C 135.64,252.023 133.807,254.023 131.5,255.5 Z"/></g>
</svg>
